<svg
   xmlns:dc="http://purl.org/dc/elements/1.1/"
   xmlns:cc="http://creativecommons.org/ns#"
   xmlns:rdf="http://www.w3.org/1999/02/22-rdf-syntax-ns#"
   xmlns:svg="http://www.w3.org/2000/svg"
   xmlns="http://www.w3.org/2000/svg"
   xmlns:sodipodi="http://sodipodi.sourceforge.net/DTD/sodipodi-0.dtd"
   xmlns:inkscape="http://www.inkscape.org/namespaces/inkscape"
   width="45.846409mm"
   height="45.696167mm"
   viewBox="0 0 45.846409 45.696167"
   version="1.1"
   id="svg8"
   inkscape:version="1.0.1 (3bc2e813f5, 2020-09-07)"
   sodipodi:docname="jumper.svg">
  <style></style>
  <defs
     id="defs2">
    <inkscape:path-effect
       effect="bspline"
       id="path-effect925"
       is_visible="true"
       lpeversion="1"
       weight="33.333333"
       steps="2"
       helper_size="0"
       apply_no_weight="true"
       apply_with_weight="true"
       only_selected="false" />
    <inkscape:path-effect
       effect="bspline"
       id="path-effect921"
       is_visible="true"
       lpeversion="1"
       weight="33.333333"
       steps="2"
       helper_size="0"
       apply_no_weight="true"
       apply_with_weight="true"
       only_selected="false" />
    <inkscape:path-effect
       effect="bspline"
       id="path-effect917"
       is_visible="true"
       lpeversion="1"
       weight="33.333333"
       steps="2"
       helper_size="0"
       apply_no_weight="true"
       apply_with_weight="true"
       only_selected="false" />
    <inkscape:path-effect
       effect="bspline"
       id="path-effect913"
       is_visible="true"
       lpeversion="1"
       weight="33.333333"
       steps="2"
       helper_size="0"
       apply_no_weight="true"
       apply_with_weight="true"
       only_selected="false" />
    <inkscape:path-effect
       effect="bspline"
       id="path-effect909"
       is_visible="true"
       lpeversion="1"
       weight="33.333333"
       steps="2"
       helper_size="0"
       apply_no_weight="true"
       apply_with_weight="true"
       only_selected="false" />
    <inkscape:path-effect
       effect="bspline"
       id="path-effect82"
       is_visible="true"
       lpeversion="1"
       weight="33.333333"
       steps="2"
       helper_size="0"
       apply_no_weight="true"
       apply_with_weight="true"
       only_selected="false" />
    <inkscape:path-effect
       effect="bspline"
       id="path-effect78"
       is_visible="true"
       lpeversion="1"
       weight="33.333333"
       steps="2"
       helper_size="0"
       apply_no_weight="true"
       apply_with_weight="true"
       only_selected="false" />
    <inkscape:path-effect
       effect="bspline"
       id="path-effect74"
       is_visible="true"
       lpeversion="1"
       weight="33.333333"
       steps="2"
       helper_size="0"
       apply_no_weight="true"
       apply_with_weight="true"
       only_selected="false" />
    <inkscape:path-effect
       effect="bspline"
       id="path-effect66"
       is_visible="true"
       lpeversion="1"
       weight="33.333333"
       steps="2"
       helper_size="0"
       apply_no_weight="true"
       apply_with_weight="true"
       only_selected="false" />
    <inkscape:path-effect
       effect="bspline"
       id="path-effect58"
       is_visible="true"
       lpeversion="1"
       weight="33.333333"
       steps="2"
       helper_size="0"
       apply_no_weight="true"
       apply_with_weight="true"
       only_selected="false" />
    <inkscape:path-effect
       effect="bspline"
       id="path-effect46"
       is_visible="true"
       lpeversion="1"
       weight="33.333333"
       steps="2"
       helper_size="0"
       apply_no_weight="true"
       apply_with_weight="true"
       only_selected="false" />
    <inkscape:path-effect
       effect="bspline"
       id="path-effect42"
       is_visible="true"
       lpeversion="1"
       weight="33.333333"
       steps="2"
       helper_size="0"
       apply_no_weight="true"
       apply_with_weight="true"
       only_selected="false" />
    <inkscape:path-effect
       effect="bspline"
       id="path-effect26"
       is_visible="true"
       lpeversion="1"
       weight="33.333333"
       steps="2"
       helper_size="0"
       apply_no_weight="true"
       apply_with_weight="true"
       only_selected="false" />
  </defs>
  <sodipodi:namedview
     id="base"
     pagecolor="#ffffff"
     bordercolor="#666666"
     borderopacity="1.0"
     inkscape:pageopacity="0.0"
     inkscape:pageshadow="2"
     inkscape:zoom="5.6"
     inkscape:cx="63.653711"
     inkscape:cy="98.609548"
     inkscape:document-units="mm"
     inkscape:current-layer="layer1"
     inkscape:document-rotation="0"
     showgrid="false"
     inkscape:window-width="1920"
     inkscape:window-height="1017"
     inkscape:window-x="-8"
     inkscape:window-y="-8"
     inkscape:window-maximized="1" />
  <metadata
     id="metadata5">
    <rdf:RDF>
      <cc:Work
         rdf:about="">
        <dc:format>image/svg+xml</dc:format>
        <dc:type
           rdf:resource="http://purl.org/dc/dcmitype/StillImage" />
        <dc:title></dc:title>
      </cc:Work>
    </rdf:RDF>
  </metadata>
  <g
     inkscape:label="Layer 1"
     inkscape:groupmode="layer"
     id="layer1"
     transform="translate(-60.914111,-135.9047)">
    <path
       style="stroke:#000000;stroke-width:0.264583px;stroke-linecap:butt;stroke-linejoin:miter;stroke-opacity:1"
       d="m 73.198337,164.26999 c 0,-0.4554 0,-1.36884 0.330459,-2.54288 0.330459,-1.17404 0.991918,-2.6072 1.425479,-3.40326 0.433561,-0.79606 0.638298,-0.95355 0.937625,-1.16621 0.299328,-0.21266 0.693053,-0.48039 1.725345,-0.77963 1.032292,-0.29923 2.701684,-0.62996 3.788668,-0.79513 1.086984,-0.16516 1.590953,-0.16516 2.087267,-0.10969 0.496313,0.0555 0.984532,0.16571 1.740532,0.46536 0.756001,0.29964 1.779686,0.78786 2.40925,1.17438 0.629563,0.38653 0.865797,0.67 1.086311,0.92984 0.220514,0.25984 0.425254,0.49607 0.582433,0.70884 0.157179,0.21276 0.267422,0.40175 0.448609,0.69308 0.181186,0.29133 0.433172,0.68506 0.574377,0.93708 0.141206,0.25202 0.172706,0.36226 0.2204,0.4725 0.04769,0.11024 0.110689,0.22048 0.149413,0.32276 0.03872,0.10229 0.05448,0.19682 0.07887,0.26771 0.02439,0.0709 0.05587,0.11812 0.08657,0.25195 0.0307,0.13384 0.0622,0.35433 0.109719,0.56704 0.04752,0.2127 0.110517,0.41745 0.141529,0.56678 0.03101,0.14934 0.03101,0.24387 0.05502,0.38585 0.02401,0.14198 0.07126,0.33097 0.10243,0.60639 0.03117,0.27543 0.04692,0.63766 -0.172221,0.80174 -0.219139,0.16408 -0.675853,0.13258 -1.030097,0.0934 -0.354244,-0.0392 -0.60622,-0.0864 -0.827025,-0.10257 -0.220805,-0.0162 -0.4098,-4.1e-4 -0.472442,0.0158 -0.06264,0.0162 3.41e-4,0.032 0.149934,0.11926 0.149593,0.0873 0.385828,0.24474 0.613894,0.44987 0.228065,0.20512 0.448549,0.4571 0.629899,0.63795 0.181351,0.18085 0.32309,0.29109 0.392496,0.36213 0.06941,0.071 0.06941,0.10253 0.102387,0.14172 0.03298,0.0392 0.09596,0.0864 0.245291,0.2521 0.149336,0.1657 0.385571,0.44918 0.661343,0.74039 0.275772,0.29122 0.590752,0.59045 0.746885,0.73222 0.156132,0.14178 0.156132,0.12598 0.163824,0.0707 0.0077,-0.0553 0.02345,-0.14985 0.110103,-0.30034 0.08665,-0.1505 0.244137,-0.35523 0.441628,-0.52105 0.197491,-0.16581 0.433725,-0.2918 0.780003,-0.51222 0.346278,-0.22043 0.802999,-0.53541 1.251743,-0.86608 0.448744,-0.33068 0.889712,-0.67715 1.181078,-0.90552 0.291367,-0.22837 0.433106,-0.33861 0.394873,-0.39359 -0.03823,-0.055 -0.258718,-0.055 -0.431815,-0.0627 -0.173098,-0.008 -0.299098,-0.0234 -0.70871,-0.0315 -0.409611,-0.008 -1.102568,-0.008 -1.504168,-0.008 -0.401599,0 -0.511843,0 -0.560472,-0.16411 -0.04863,-0.16411 -0.03288,-0.49484 -0.06375,-0.77011 -0.03087,-0.27527 -0.109614,-0.49576 -0.377193,-1.10997 -0.267578,-0.61421 -0.724301,-1.62214 -1.172833,-2.44904 -0.448531,-0.8269 -0.889504,-1.47261 -1.330584,-2.16553 -0.44108,-0.69291 -0.882055,-1.43312 -1.180703,-1.85884 -0.298647,-0.42573 -0.456141,-0.53597 -0.794714,-0.75653 -0.338572,-0.22057 -0.85829,-0.55129 -1.228396,-0.74093 -0.370105,-0.18964 -0.590582,-0.23689 -0.858413,-0.27645 -0.267831,-0.0396 -0.582811,-0.0711 -1.063009,-0.19666 -0.480199,-0.12559 -1.12591,-0.34608 -1.480273,-0.47182 -0.354363,-0.12575 -0.417319,-0.15723 -0.488466,-0.17378 -0.07115,-0.0165 -0.14989,-0.0165 -0.25203,-0.0319 -0.102141,-0.0154 -0.228109,-0.0469 -0.661476,-0.0551 -0.433366,-0.008 -1.17357,0.007 -1.764129,0.0154 -0.590559,0.008 -1.031531,0.008 -1.504235,0.0471 -0.472704,0.0392 -0.976672,0.11795 -1.473522,0.31477 -0.49685,0.19682 -0.98507,0.5118 -1.339327,0.73226 -0.354257,0.22045 -0.574747,0.34644 -0.866559,0.5987 -0.291813,0.25226 -0.654036,0.63023 -1.102925,1.1185 -0.448888,0.48827 -0.984353,1.08673 -1.299482,1.59948 -0.31513,0.51275 -0.409623,0.93797 -0.448648,1.23765 -0.03902,0.29968 -0.02327,0.47292 -0.0473,0.62959 -0.02402,0.15667 -0.08702,0.29841 -0.134229,0.4326 -0.04721,0.13419 -0.0787,0.26018 -0.181112,0.51973 -0.102408,0.25955 -0.275645,0.65327 -0.361992,1.02407 -0.08635,0.3708 -0.08635,0.71728 -0.141733,1.05536 -0.05539,0.33807 -0.16563,0.6688 -0.260015,1.11797 -0.09438,0.44917 -0.17313,1.01614 -0.01416,1.2985 0.158968,0.28237 0.552693,0.28237 0.819897,0.25848 0.267204,-0.0239 0.408931,-0.0711 0.543152,-0.1025 0.134221,-0.0314 0.260221,-0.0471 0.307341,-0.0769 0.04712,-0.0298 0.01564,-0.077 -0.0011,-0.1481 -0.01678,-0.0711 -0.01678,-0.16562 -0.01678,-0.21419 0,-0.0486 -2.6e-5,-0.0487 -2.6e-5,-0.50413 z"
       id="path907"
       inkscape:path-effect="#path-effect909"
       inkscape:original-d="m 73.198337,164.72538 c 0.0026,-0.91079 0.0026,-1.82423 0,-2.74032 0.664104,-1.43052 1.325563,-2.86368 1.984375,-4.29948 0.207383,-0.15485 0.41212,-0.31234 0.614211,-0.47247 0.396371,-0.26509 0.790097,-0.53282 1.181176,-0.8032 1.672041,-0.32809 3.341435,-0.65881 5.008184,-0.99219 0.506614,0.003 1.010583,0.003 1.511905,0 0.490865,0.11289 0.979084,0.22313 1.464658,0.33073 1.026331,0.49086 2.050017,0.97908 3.071056,1.46466 0.238882,0.28613 0.475115,0.56961 0.708705,0.85044 0.207383,0.23888 0.412121,0.47512 0.614212,0.70871 0.11289,0.19163 0.223131,0.38062 0.330729,0.56696 0.25463,0.39637 0.506614,0.7901 0.755952,1.18118 0.03414,0.11289 0.06564,0.22313 0.0945,0.33073 0.06564,0.11289 0.128637,0.22313 0.188986,0.33073 0.01839,0.0971 0.03414,0.19163 0.04725,0.28348 0.03414,0.0499 0.06564,0.0971 0.0945,0.14174 0.03414,0.22313 0.06564,0.44362 0.09449,0.66146 0.06564,0.20738 0.128638,0.41212 0.188987,0.61421 0.0026,0.0971 0.0026,0.19163 0,0.28348 0.0499,0.19164 0.09714,0.38063 0.141742,0.56697 0.01839,0.36487 0.03414,0.7271 0.04725,1.08668 -0.454075,-0.0289 -0.910796,-0.0603 -1.370163,-0.0945 -0.249338,-0.0446 -0.501322,-0.0918 -0.755952,-0.14174 -0.186343,0.0184 -0.375333,0.0342 -0.566965,0.0472 0.06564,0.0184 0.128638,0.0341 0.188987,0.0473 0.238881,0.16013 0.475117,0.31762 0.708707,0.47247 0.223131,0.25463 0.443616,0.50661 0.661459,0.75595 0.144385,0.11289 0.286125,0.22313 0.425222,0.33073 0.0026,0.0341 0.0026,0.0656 0,0.0945 0.06564,0.0499 0.128638,0.0971 0.188987,0.14174 0.238881,0.28613 0.475117,0.56961 0.708707,0.85045 0.317625,0.30188 0.632606,0.60111 0.944938,0.89769 0.0026,-0.0131 0.0026,-0.0289 0,-0.0472 0.01839,-0.0918 0.03414,-0.18635 0.04725,-0.28348 0.160133,-0.2021 0.317624,-0.40683 0.472469,-0.61422 0.238881,-0.12334 0.475115,-0.24933 0.708705,-0.37797 0.459367,-0.31234 0.916088,-0.62732 1.370163,-0.94494 0.443619,-0.34384 0.884592,-0.69031 1.322917,-1.03944 0.144388,-0.1076 0.286128,-0.21784 0.425225,-0.33073 -0.217842,0.003 -0.438327,0.003 -0.661459,0 -0.123346,-0.0131 -0.249338,-0.0289 -0.377978,-0.0472 -0.690308,0.003 -1.383265,0.003 -2.078868,0 -0.107596,0.003 -0.21784,0.003 -0.330729,0 0.01839,-0.32809 0.03414,-0.65882 0.04725,-0.99219 -0.0761,-0.21784 -0.154842,-0.43833 -0.236233,-0.66146 -0.454075,-1.00529 -0.910796,-2.01323 -1.370166,-3.02381 -0.438325,-0.64306 -0.879298,-1.28877 -1.322917,-1.93713 -0.438324,-0.73755 -0.879297,-1.47776 -1.322916,-2.22061 -0.154842,-0.10759 -0.312333,-0.21784 -0.472469,-0.33073 -0.517073,-0.32808 -1.036789,-0.65881 -1.559152,-0.99218 -0.21784,-0.0446 -0.438327,-0.0918 -0.661458,-0.14175 -0.312335,-0.0288 -0.627315,-0.0603 -0.944941,-0.0945 -0.643063,-0.21784 -1.288773,-0.43833 -1.937128,-0.66146 -0.06035,-0.0289 -0.123346,-0.0603 -0.188988,-0.0945 -0.0761,0.003 -0.154844,0.003 -0.236235,0 -0.123346,-0.0289 -0.249338,-0.0603 -0.377976,-0.0945 -0.737558,0.0184 -1.477761,0.0342 -2.22061,0.0473 -0.438327,0.003 -0.879299,0.003 -1.322917,0 -0.501322,0.0814 -1.005291,0.16014 -1.511905,0.23624 -0.485573,0.31762 -0.973792,0.6326 -1.464658,0.94494 -0.21784,0.12863 -0.438326,0.25463 -0.661458,0.37797 -0.359581,0.38063 -0.721808,0.7586 -1.086681,1.13393 -0.532821,0.60111 -1.068287,1.19957 -1.606399,1.79539 -0.09185,0.42787 -0.186342,0.85309 -0.283482,1.27567 0.01839,0.17588 0.03414,0.34912 0.04725,0.51972 -0.06035,0.14438 -0.123347,0.28612 -0.188988,0.42522 -0.02885,0.12864 -0.06035,0.25463 -0.09449,0.37798 -0.170594,0.39637 -0.343833,0.79009 -0.519717,1.18117 0.0026,0.34912 0.0026,0.6956 0,1.03944 -0.107598,0.33337 -0.217841,0.6641 -0.33073,0.99218 -0.0761,0.56961 -0.154844,1.13658 -0.236235,1.7009 0.396371,0.003 0.790096,0.003 1.181176,0 0.144387,-0.0446 0.286128,-0.0918 0.425223,-0.14174 0.128638,-0.0131 0.25463,-0.0289 0.377976,-0.0472 -0.02885,-0.0446 -0.06035,-0.0918 -0.09449,-0.14174 0.0026,-0.0918 0.0026,-0.18635 0,-0.28349 z" />
    <path
       style="stroke:#000000;stroke-width:0.264583px;stroke-linecap:butt;stroke-linejoin:miter;stroke-opacity:1"
       d="m 80.285391,161.98506 c 0.664071,0.67988 1.325531,1.35709 1.805926,1.83738 0.480395,0.4803 0.779625,0.76378 0.99204,0.98443 0.212414,0.22065 0.338406,0.37814 0.439392,0.39279 0.100986,0.0147 0.17973,-0.11133 0.298471,-0.22217 0.118742,-0.11084 0.276208,-0.20532 0.206271,-0.40063 -0.06994,-0.19531 -0.369167,-0.49454 -0.684272,-0.84092 -0.315105,-0.34637 -0.645832,-0.74009 -0.882086,-1.02356 -0.236255,-0.28347 -0.377996,-0.45671 -0.527826,-0.66921 -0.14983,-0.21251 -0.307318,-0.46449 -0.40933,-0.59203 -0.102011,-0.12754 -0.149261,-0.12754 -0.292324,-0.009 -0.143063,0.11811 -0.379297,0.35435 -0.615533,0.59058"
       id="path911"
       inkscape:path-effect="#path-effect913"
       inkscape:original-d="m 80.285391,161.98506 c 0.664104,0.67985 1.325562,1.35706 1.984375,2.03162 0.301876,0.28613 0.601108,0.56961 0.897693,0.85045 0.128638,0.16013 0.25463,0.31762 0.377976,0.47247 0.08139,-0.12335 0.160136,-0.24934 0.236235,-0.37798 0.160136,-0.0919 0.317626,-0.18634 0.472471,-0.28348 -0.296586,-0.29659 -0.595817,-0.59582 -0.897694,-0.8977 -0.328083,-0.39108 -0.658812,-0.7848 -0.992187,-1.18117 -0.139096,-0.17059 -0.280837,-0.34383 -0.425224,-0.51972 -0.154844,-0.24934 -0.312334,-0.50132 -0.47247,-0.75595 -0.0446,0.003 -0.09185,0.003 -0.141741,0 -0.233589,0.23888 -0.469824,0.47511 -0.708705,0.7087" />
    <path
       style="stroke:#000000;stroke-width:0.264583px;stroke-linecap:butt;stroke-linejoin:miter;stroke-opacity:1"
       d="m 84.632117,160.47315 c 0,0 -4.866444,4.29948 -4.866444,4.29948"
       id="path915"
       inkscape:path-effect="#path-effect917"
       inkscape:original-d="m 84.632117,160.47315 -4.866444,4.29948" />
    <path
       style="stroke:#000000;stroke-width:0.264583px;stroke-linecap:butt;stroke-linejoin:miter;stroke-opacity:1"
       d="m 79.765673,164.77263 c 0,0 0.897694,0.8032 0.897694,0.8032 0,0 4.110491,-3.44903 4.110491,-3.44903"
       id="path919"
       inkscape:path-effect="#path-effect921"
       inkscape:original-d="m 79.765673,164.77263 0.897694,0.8032 4.110491,-3.44903" />
    <path
       style="stroke:#000000;stroke-width:0.264583px;stroke-linecap:butt;stroke-linejoin:miter;stroke-opacity:1"
       d="m 83.639929,161.3236 c 0,0 1.133929,0.8032 1.133929,0.8032"
       id="path923"
       inkscape:path-effect="#path-effect925"
       inkscape:original-d="m 83.639929,161.3236 1.133929,0.8032" />
  </g>
</svg>
